{"title":"The Block - S12E24 - Master Bedrooms Revealed","uid":15961585,"size":1350136773,"categoryP":"video","categoryS":"tv_shows","magnet":"?xt=urn:btih:93802e7feccbfd5d735d67a55f4ca99b3a3112ce&amp;dn=The+Block+-+S12E24+-+Master+Bedrooms+Revealed&amp;tr=udp%3A%2F%2Ftracker.leechers-paradise.org%3A6969&amp;tr=udp%3A%2F%2Fzer0day.ch%3A1337&amp;tr=udp%3A%2F%2Fopen.demonii.com%3A1337&amp;tr=udp%3A%2F%2Ftracker.coppersurfer.tk%3A6969&amp;tr=udp%3A%2F%2Fexodus.desync.com%3A6969","seeders":3,"leechers":2,"uploader":"Bullrout","files":1,"time":1475668836,"description":"The Block - S12E24 - Master Bedrooms Revealed\r\n\r\nTonight, the teams race to reveal their master bedrooms and walk in robes. The judges are underwhelmed by some efforts then overwhelmed by impressive features and luxury finishes. Only one team can take home the much need $10,000 in prize money.\r\n\r\nComplete name : The Block - S12E24 - Master Bedrooms Revealed.mkv\r\nFormat : Matroska\r\nFormat version : Version 4 / Version 2\r\nFile size : 1.26 GiB\r\nDuration : 54 min 29 s\r\nOverall bit rate mode : Variable\r\nOverall bit rate : 3 303 kb/s\r\nEncoded date : UTC 2016-10-04 17:51:44\r\nWriting application : mkvmerge v9.4.2 ('So High') 64bit\r\nWriting library : libebml v1.3.4 + libmatroska v1.4.5\r\n\r\nVideo\r\nID : 2\r\nFormat : AVC\r\nFormat/Info : Advanced Video Codec\r\nFormat profile :   \r\nFormat settings, CABAC : Yes\r\nFormat settings, ReFrames : 3 frames\r\nCodec ID : V_MPEG4/ISO/AVC\r\nDuration : 54 min 29 s\r\nBit rate mode : Variable\r\nBit rate : 2 917 kb/s\r\nMaximum bit rate : 3 000 kb/s\r\nWidth : 1 280 pixels\r\nHeight : 720 pixels\r\nDisplay aspect ratio : 16:9\r\nFrame rate mode : Constant\r\nFrame rate : 25.000 FPS\r\nStandard : PAL\r\nColor space : YUV\r\nChroma subsampling : 4:2:0\r\nBit depth : 8 bits\r\nScan type : Progressive\r\nBits/(Pixel*Frame) : 0.127\r\nStream size : 1.11 GiB (88%)\r\nWriting library : x264 core 112\r\nDefault : Yes\r\nForced : No\r\nColor range : Limited\r\nColor primaries : BT.709\r\nTransfer characteristics : BT.709\r\nMatrix coefficients : BT.709\r\n\r\nAudio\r\nID : 1\r\nFormat : AC-3\r\nFormat/Info : Audio Coding 3\r\nMode extension : CM (complete main)\r\nFormat settings, Endianness : Big\r\nCodec ID : A_AC3\r\nDuration : 54 min 29 s\r\nBit rate mode : Constant\r\nBit rate : 384 kb/s\r\nChannel(s) : 6 channels\r\nChannel positions : Front: L C R, Side: L R, LFE\r\nSampling rate : 48.0 kHz\r\nFrame rate : 31.250 FPS (1536 spf)\r\nCompression mode : Lossy\r\nStream size : 150 MiB (12%)\r\nDefault : Yes\r\nForced : No","torrent":{"xt":"urn:btih:93802e7feccbfd5d735d67a55f4ca99b3a3112ce","amp;dn":"The+Block+-+S12E24+-+Master+Bedrooms+Revealed","amp;tr":["udp%3A%2F%2Ftracker.leechers-paradise.org%3A6969","udp%3A%2F%2Fzer0day.ch%3A1337","udp%3A%2F%2Fopen.demonii.com%3A1337","udp%3A%2F%2Ftracker.coppersurfer.tk%3A6969","udp%3A%2F%2Fexodus.desync.com%3A6969"],"infoHash":"93802e7feccbfd5d735d67a55f4ca99b3a3112ce","infoHashBuffer":{"type":"Buffer","data":[147,128,46,127,236,203,253,93,115,93,103,165,95,76,169,155,58,49,18,206]},"announce":[],"urlList":[]}}